HIERARCHY
ROOT Hips
{
  OFFSET 5.84602e-005 68.8428 3.50346
  CHANNELS 6 Xposition Yposition Zposition Zrotation Xrotation Yrotation
  JOINT Spine
  {
    OFFSET 0 8.597 -4.6522
    CHANNELS 3 Zrotation Xrotation Yrotation
    JOINT Spine1
    {
      OFFSET 0 7.8454 0.4098
      CHANNELS 3 Zrotation Xrotation Yrotation
      JOINT Spine2
      {
        OFFSET 0 9.7078 -2.1609
        CHANNELS 3 Zrotation Xrotation Yrotation
        JOINT Neck
        {
          OFFSET 0 21.8761 -0.4549
          CHANNELS 3 Zrotation Xrotation Yrotation
          JOINT Head
          {
            OFFSET 0 12.3537 3.3602
            CHANNELS 3 Zrotation Xrotation Yrotation
            End Site
            {
              OFFSET 0.0001 18.9506 0.5657
            }
          }
        }
        JOINT LeftShoulder
        {
          OFFSET 2.2086 21.1115 7.2329
          CHANNELS 3 Zrotation Xrotation Yrotation
          JOINT LeftArm
          {
            OFFSET 13.1193 3.0282 -4.8998
            CHANNELS 3 Zrotation Xrotation Yrotation
            JOINT LeftForeArm
            {
              OFFSET 27.4081 -0.0973053 -0.2375
              CHANNELS 3 Zrotation Xrotation Yrotation
              JOINT LeftHand
              {
                OFFSET 22.8641 0.0662994 -0.1369
                CHANNELS 3 Zrotation Xrotation Yrotation
                JOINT LeftHandIndex1
                {
                  OFFSET 8.8614 0.775009 2.4612
                  CHANNELS 3 Zrotation Xrotation Yrotation
                  JOINT LeftHandIndex2
                  {
                    OFFSET 3.3146 -0.808304 0.5841
                    CHANNELS 3 Zrotation Xrotation Yrotation
                    JOINT LeftHandIndex3
                    {
                      OFFSET 2.2628 -0.552002 0.3989
                      CHANNELS 3 Zrotation Xrotation Yrotation
                      End Site
                      {
                        OFFSET 1.6102 -0.4807 0.2612
                      }
                    }
                  }
                }
                JOINT LeftHandMiddle1
                {
                  OFFSET 8.9937 0.895004 0.2143
                  CHANNELS 3 Zrotation Xrotation Yrotation
                  JOINT LeftHandMiddle2
                  {
                    OFFSET 4.0984 0.0113983 -0.0242
                    CHANNELS 3 Zrotation Xrotation Yrotation
                    JOINT LeftHandMiddle3
                    {
                      OFFSET 2.2716 0.00689697 -0.0138001
                      CHANNELS 3 Zrotation Xrotation Yrotation
                      End Site
                      {
                        OFFSET 2.0404 -0.1441 0.0027
                      }
                    }
                  }
                }
                JOINT LeftHandRing1
                {
                  OFFSET 8.5234 0.597198 -2.0164
                  CHANNELS 3 Zrotation Xrotation Yrotation
                  JOINT LeftHandRing2
                  {
                    OFFSET 3.7188 -0.188293 -0.2328
                    CHANNELS 3 Zrotation Xrotation Yrotation
                    JOINT LeftHandRing3
                    {
                      OFFSET 2.1191 -0.106598 -0.1332
                      CHANNELS 3 Zrotation Xrotation Yrotation
                      End Site
                      {
                        OFFSET 1.8737 -0.2304 -0.0886
                      }
                    }
                  }
                }
                JOINT LeftHandPinky1
                {
                  OFFSET 7.9094 -0.601089 -3.4825
                  CHANNELS 3 Zrotation Xrotation Yrotation
                  JOINT LeftHandPinky2
                  {
                    OFFSET 2.2874 -0.477005 -0.6314
                    CHANNELS 3 Zrotation Xrotation Yrotation
                    JOINT LeftHandPinky3
                    {
                      OFFSET 1.6774 -0.349396 -0.4633
                      CHANNELS 3 Zrotation Xrotation Yrotation
                      End Site
                      {
                        OFFSET 1.4888 -0.4091 -0.3416
                      }
                    }
                  }
                }
                JOINT LeftHandThumb1
                {
                  OFFSET 1.833 -1.3875 1.3896
                  CHANNELS 3 Zrotation Xrotation Yrotation
                  JOINT LeftHandThumb2
                  {
                    OFFSET 3.4129 -1.121 2.5732
                    CHANNELS 3 Zrotation Xrotation Yrotation
                    JOINT LeftHandThumb3
                    {
                      OFFSET 2.2474 -0.804199 1.6192
                      CHANNELS 3 Zrotation Xrotation Yrotation
                      End Site
                      {
                        OFFSET 1.6527 -0.5689 1.1317
                      }
                    }
                  }
                }
              }
            }
          }
        }
        JOINT RightShoulder
        {
          OFFSET -2.2086 21.1115 7.2329
          CHANNELS 3 Zrotation Xrotation Yrotation
          JOINT RightArm
          {
            OFFSET -13.1216 3.0287 -4.9007
            CHANNELS 3 Zrotation Xrotation Yrotation
            JOINT RightForeArm
            {
              OFFSET -27.4081 -0.0973053 -0.2375
              CHANNELS 3 Zrotation Xrotation Yrotation
              JOINT RightHand
              {
                OFFSET -22.8641 0.0664063 -0.1369
                CHANNELS 3 Zrotation Xrotation Yrotation
                JOINT RightHandIndex1
                {
                  OFFSET -8.8614 0.774994 2.4612
                  CHANNELS 3 Zrotation Xrotation Yrotation
                  JOINT RightHandIndex2
                  {
                    OFFSET -3.3146 -0.808304 0.5841
                    CHANNELS 3 Zrotation Xrotation Yrotation
                    JOINT RightHandIndex3
                    {
                      OFFSET -2.2628 -0.552002 0.3989
                      CHANNELS 3 Zrotation Xrotation Yrotation
                      End Site
                      {
                        OFFSET -1.6102 -0.4807 0.2612
                      }
                    }
                  }
                }
                JOINT RightHandMiddle1
                {
                  OFFSET -8.9937 0.894989 0.2143
                  CHANNELS 3 Zrotation Xrotation Yrotation
                  JOINT RightHandMiddle2
                  {
                    OFFSET -4.0984 0.0113983 -0.0242
                    CHANNELS 3 Zrotation Xrotation Yrotation
                    JOINT RightHandMiddle3
                    {
                      OFFSET -2.2716 0.00691223 -0.0138001
                      CHANNELS 3 Zrotation Xrotation Yrotation
                      End Site
                      {
                        OFFSET -2.0404 -0.1441 0.0027
                      }
                    }
                  }
                }
                JOINT RightHandRing1
                {
                  OFFSET -8.5234 0.597198 -2.0164
                  CHANNELS 3 Zrotation Xrotation Yrotation
                  JOINT RightHandRing2
                  {
                    OFFSET -3.7188 -0.188309 -0.2328
                    CHANNELS 3 Zrotation Xrotation Yrotation
                    JOINT RightHandRing3
                    {
                      OFFSET -2.1191 -0.106598 -0.1332
                      CHANNELS 3 Zrotation Xrotation Yrotation
                      End Site
                      {
                        OFFSET -1.8737 -0.2304 -0.0886
                      }
                    }
                  }
                }
                JOINT RightHandPinky1
                {
                  OFFSET -7.9094 -0.601105 -3.4825
                  CHANNELS 3 Zrotation Xrotation Yrotation
                  JOINT RightHandPinky2
                  {
                    OFFSET -2.2874 -0.477005 -0.6314
                    CHANNELS 3 Zrotation Xrotation Yrotation
                    JOINT RightHandPinky3
                    {
                      OFFSET -1.6774 -0.349396 -0.4633
                      CHANNELS 3 Zrotation Xrotation Yrotation
                      End Site
                      {
                        OFFSET -1.4888 -0.4091 -0.3416
                      }
                    }
                  }
                }
                JOINT RightHandThumb1
                {
                  OFFSET -1.833 -1.38751 1.3896
                  CHANNELS 3 Zrotation Xrotation Yrotation
                  JOINT RightHandThumb2
                  {
                    OFFSET -3.41299 -1.12099 2.5732
                    CHANNELS 3 Zrotation Xrotation Yrotation
                    JOINT RightHandThumb3
                    {
                      OFFSET -2.24741 -0.804108 1.6192
                      CHANNELS 3 Zrotation Xrotation Yrotation
                      End Site
                      {
                        OFFSET -1.6527 -0.5689 1.1317
                      }
                    }
                  }
                }
              }
            }
          }
        }
      }
    }
  }
  JOINT RightUpLeg
  {
    OFFSET -9.1966 3.8861 -0.7581
    CHANNELS 3 Zrotation Xrotation Yrotation
    JOINT RightLeg
    {
      OFFSET -0.7359 -41.0265 0
      CHANNELS 3 Zrotation Xrotation Yrotation
      JOINT RightFoot
      {
        OFFSET 0 -40.2855 0
        CHANNELS 3 Zrotation Xrotation Yrotation
        JOINT RightToeBase
        {
          OFFSET 0 -5.6122 11.7359
          CHANNELS 3 Zrotation Xrotation Yrotation
          End Site
          {
            OFFSET 0 0 7.8731
          }
        }
      }
    }
  }
  JOINT LeftUpLeg
  {
    OFFSET 9.1965 3.8864 -0.7581
    CHANNELS 3 Zrotation Xrotation Yrotation
    JOINT LeftLeg
    {
      OFFSET 0.7359 -41.0268 0
      CHANNELS 3 Zrotation Xrotation Yrotation
      JOINT LeftFoot
      {
        OFFSET 0 -40.2855 0
        CHANNELS 3 Zrotation Xrotation Yrotation
        JOINT LeftToeBase
        {
          OFFSET 0 -5.6122 11.7359
          CHANNELS 3 Zrotation Xrotation Yrotation
          End Site
          {
            OFFSET 0 0 7.8731
          }
        }
      }
    }
  }
}
MOTION
Frames:	4
Frame Time:	0.0333333
-2.661 29.6941 -24.7837 -0 -9.00558 -0 0.0576282 15.1855 -0.170052 0.173717 30.3706 -0.377767 0.173717 30.3706 -0.377766 0.510615 29.0001 -0.249453 4.62495 -11.6062 0.921699 19.4238 -3.97559 -30.8988 -43.7315 -50.056 -18.7333 37.2627 -26.3349 -113.044 -5.0382 -37.0602 -12.1668 1.53519e-006 -4.62223e-007 -4.49942e-007 1.53519e-006 -4.62223e-007 -4.49942e-007 3.07038e-006 -9.24445e-007 -8.99884e-007 1.53519e-006 -4.62223e-007 -4.49942e-007 -0.0146194 -8.85308e-005 -5.92598e-006 3.04592e-006 -1.28494e-006 -1.28561e-007 1.53519e-006 -4.62223e-007 -4.49942e-007 -0.0188008 -0.00118053 5.59471e-005 3.0705e-006 -9.24291e-007 -9.00068e-007 1.53519e-006 -4.62223e-007 -4.49942e-007 -0.0122308 -0.00323891 0.000673437 3.07043e-006 -9.24346e-007 -9.00074e-007 1.53519e-006 -4.62223e-007 -4.49942e-007 1.53519e-006 -4.62223e-007 -4.49942e-007 3.07038e-006 -9.24445e-007 -8.99884e-007 -7.91872 4.78255 5.60314 88.124 -26.7737 47.5754 45.8547 60.0549 52.5662 -3.84984 -8.28734 -45.2219 -7.02909e-007 -1.48129e-006 2.88755e-006 -3.9894e-006 -8.35381e-007 2.92529e-006 -3.61038e-006 -1.13991e-007 1.6712e-006 -7.02909e-007 -1.48129e-006 2.88755e-006 0.015001 -9.11034e-005 8.89143e-006 -3.66464e-006 -7.53118e-008 1.29184e-006 -7.02909e-007 -1.48129e-006 2.88755e-006 0.0190194 -0.00118939 -5.49738e-005 -3.61193e-006 -1.13618e-007 1.67126e-006 -7.02909e-007 -1.48129e-006 2.88755e-006 0.0122669 -0.00325037 -0.000673937 -3.61135e-006 -1.13566e-007 1.67137e-006 -7.02909e-007 -1.48129e-006 2.88755e-006 -3.9894e-006 -8.35381e-007 2.92529e-006 -3.61038e-006 -1.13991e-007 1.6712e-006 -13.0011 -5.43174 -10.2165 -160.521 72.8194 163.455 -19.4333 52.7457 -1.91723 9.09497e-007 1.15682e-007 1.48437e-006 11.7677 -4.6917 10.1022 160.859 73.071 -163.75 18.115 52.9219 3.55031 5.88776e-007 3.23701e-006 1.83991e-006 
-2.66101 29.8142 -24.6206 -0 -9.00558 -0 0.0575507 15.1258 -0.169625 0.173104 30.2513 -0.376571 0.173104 30.2513 -0.376571 0.51061 28.9999 -0.249449 4.6208 -11.3582 0.901288 19.0414 -3.27925 -31.305 -43.7315 -50.056 -18.7333 37.2627 -26.3349 -113.044 -5.14954 -36.5686 -12.5687 -4.77083e-015 6.36111e-015 -3.18055e-015 1.53507e-006 -4.62626e-007 -4.50321e-007 -7.95139e-015 -1.90833e-014 -6.36111e-015 -4.77083e-015 6.36111e-015 -3.18055e-015 -0.0145854 -8.22103e-005 1.99589e-006 -1.59028e-015 -2.54444e-014 -0 -4.77083e-015 6.36111e-015 -3.18055e-015 -0.0187237 -0.00117252 4.93205e-005 -2.82651e-008 -3.62384e-007 7.76543e-007 -4.77083e-015 6.36111e-015 -3.18055e-015 -0.0122788 -0.00324455 0.000671632 -7.95139e-015 3.18055e-015 -0 -4.77083e-015 6.36111e-015 -3.18055e-015 1.53507e-006 -4.62626e-007 -4.50321e-007 -7.95139e-015 -1.90833e-014 -6.36111e-015 -7.56684 5.2501 6.23914 88.0293 -27.0208 47.8294 44.8252 59.3102 52.5863 -2.86101 -8.44101 -44.0457 -1.09885e-006 -1.98025e-008 3.63104e-006 -1.09885e-006 -1.98025e-008 3.63104e-006 -3.53221e-007 -7.34129e-007 1.44845e-006 -1.09885e-006 -1.98025e-008 3.63104e-006 0.0149934 -9.19106e-005 4.91284e-006 -3.53169e-007 -7.33939e-007 1.44855e-006 -1.09885e-006 -1.98025e-008 3.63104e-006 0.0189809 -0.00119023 -5.66377e-005 -3.53141e-007 -7.33893e-007 1.44858e-006 -1.09885e-006 -1.98025e-008 3.63104e-006 0.0122985 -0.00325522 -0.000673664 -3.53134e-007 -7.33986e-007 1.44854e-006 -1.09885e-006 -1.98025e-008 3.63104e-006 -1.09885e-006 -1.98025e-008 3.63104e-006 -3.53221e-007 -7.34129e-007 1.44845e-006 -12.9872 -5.14013 -10.178 -160.203 73.1736 163.17 -19.4478 52.7418 -1.89975 -1.59028e-015 9.54166e-015 3.18055e-015 11.7536 -4.40063 10.0641 160.544 73.4267 -163.466 18.1297 52.9182 3.53254 -2.64834e-031 3.18055e-015 4.77083e-015 
-2.66102 29.9215 -24.475 -0 -9.00558 -0 0.0574826 15.0725 -0.169241 0.17256 30.1447 -0.375502 0.17256 30.1447 -0.375502 0.510611 28.9999 -0.249448 4.61717 -11.1367 0.883088 18.7036 -2.65384 -31.6633 -43.7315 -50.056 -18.7333 37.2627 -26.3349 -113.044 -5.24507 -36.1288 -12.9248 1.53495e-006 -4.62976e-007 -4.5068e-007 1.53495e-006 -4.62976e-007 -4.5068e-007 3.0699e-006 -9.25952e-007 -9.0136e-007 1.53495e-006 -4.62976e-007 -4.5068e-007 -0.0146412 -9.1508e-005 -1.55353e-007 3.07e-006 -9.25836e-007 -9.01481e-007 1.53495e-006 -4.62976e-007 -4.5068e-007 -0.0187786 -0.00117818 5.78118e-005 3.07002e-006 -9.25798e-007 -9.01544e-007 1.53495e-006 -4.62976e-007 -4.5068e-007 -0.0122604 -0.00324836 0.000674501 3.06995e-006 -9.25852e-007 -9.01551e-007 1.53495e-006 -4.62976e-007 -4.5068e-007 1.53495e-006 -4.62976e-007 -4.5068e-007 3.0699e-006 -9.25952e-007 -9.0136e-007 -7.25606 5.67176 6.80549 87.9455 -27.242 48.0562 43.9275 58.6468 52.5737 -1.97263 -8.56029 -42.9897 7.93205e-008 -2.15724e-006 4.99119e-007 -2.3765e-008 -1.17984e-008 1.12577e-007 3.17906e-008 -2.18084e-006 7.24272e-007 7.93205e-008 -2.15724e-006 4.99119e-007 0.0150137 -8.96814e-005 -9.29796e-007 -1.774e-008 -2.2043e-006 9.49714e-007 7.93205e-008 -2.15724e-006 4.99119e-007 0.018996 -0.0011895 -5.56158e-005 3.19221e-008 -2.18073e-006 7.24633e-007 7.93205e-008 -2.15724e-006 4.99119e-007 0.0122688 -0.00325131 -0.000675306 -1.73349e-008 -2.2039e-006 9.49751e-007 7.93205e-008 -2.15724e-006 4.99119e-007 -2.3765e-008 -1.17984e-008 1.12577e-007 3.17906e-008 -2.18084e-006 7.24272e-007 -12.9749 -4.87923 -10.1438 -159.908 73.49 162.904 -19.4607 52.7385 -1.88418 -2.96508e-007 -6.8827e-008 1.86475e-006 11.741 -4.14061 10.0303 160.251 73.7441 -163.202 18.1428 52.9151 3.51669 -9.92034e-008 -1.05677e-008 -1.73811e-006 
-2.66103 30.0288 -24.3294 -0 -9.00558 -0 0.0574162 15.0193 -0.168855 0.172018 30.0381 -0.374433 0.172018 30.0381 -0.374433 0.510611 28.9998 -0.249448 4.61362 -10.9152 0.864911 18.3696 -2.02579 -32.0181 -43.7315 -50.056 -18.7333 37.2627 -26.3349 -113.044 -5.33674 -35.6884 -13.2781 -1.53483e-006 4.63304e-007 4.51056e-007 6.36111e-015 -1.27222e-014 3.18055e-015 -1.53483e-006 4.63304e-007 4.51056e-007 -1.53483e-006 4.63304e-007 4.51056e-007 -0.0145904 -8.73757e-005 -3.09578e-006 -1.53488e-006 4.63246e-007 4.51116e-007 -1.53483e-006 4.63304e-007 4.51056e-007 -0.0187336 -0.00117682 6.10601e-005 -1.53489e-006 4.63227e-007 4.51147e-007 -1.53483e-006 4.63304e-007 4.51056e-007 -0.012231 -0.00323783 0.000680066 -1.53486e-006 4.63255e-007 4.51151e-007 -1.53483e-006 4.63304e-007 4.51056e-007 6.36111e-015 -1.27222e-014 3.18055e-015 -1.53483e-006 4.63304e-007 4.51056e-007 -6.94901 6.09681 7.37041 87.8625 -27.4635 48.2831 43.0458 57.9833 52.5418 -1.08006 -8.66354 -41.9294 3.08678e-007 7.13713e-007 -1.38054e-006 -3.5652e-007 -7.22417e-007 1.4566e-006 -3.97569e-015 9.54166e-015 -3.18055e-015 3.08678e-007 7.13713e-007 -1.38054e-006 0.014989 -9.06699e-005 -3.55112e-006 -7.15625e-015 -6.36111e-015 -6.36111e-015 3.08678e-007 7.13713e-007 -1.38054e-006 0.0189935 -0.00119105 -5.73146e-005 5.56597e-015 3.18055e-015 -7.95139e-015 3.08678e-007 7.13713e-007 -1.38054e-006 0.0122644 -0.00324657 -0.000675404 5.56597e-015 9.54166e-015 -0 3.08678e-007 7.13713e-007 -1.38054e-006 -3.5652e-007 -7.22417e-007 1.4566e-006 -3.97569e-015 9.54166e-015 -3.18055e-015 -12.9626 -4.61867 -10.1098 -159.602 73.8057 162.627 -19.4735 52.7351 -1.86869 -5.99701e-007 3.22744e-006 -1.84612e-006 11.7285 -3.88096 9.99667 159.948 74.0607 -162.927 18.1559 52.9118 3.50099 5.29669e-031 6.36111e-015 -4.77083e-015 
